# AST/ASF file generated using VICON BodyLanguage
# -----------------------------------------------
:version 1.10
:name VICON
:units
  mass 1.0
  length 0.45
  angle deg
:documentation
   .ast/.asf automatically generated from VICON data using
   VICON BodyBuilder and BodyLanguage model FoxedUp or BRILLIANT.MOD
:root
   order TX TY TZ RX RY RZ
   axis XYZ
   position 0 0 0  
   orientation 0 0 0 
:bonedata
  begin
     id 1 
     name lhipjoint
     direction 0.707368 -0.647095 0.284426 
     length 2.60678 
     axis 0 0 0  XYZ
  end
  begin
     id 2 
     name lfemur
     direction 0.34202 -0.939693 0  
     length 6.63812  
     axis 0 0 20  XYZ
    dof rx ry rz
    limits (-160.0 20.0)
           (-70.0 70.0)
           (-60.0 70.0)
  end
  begin
     id 3 
     name ltibia
     direction 0.34202 -0.939693 0   
     length 7.51178   
     axis 0 0 20   XYZ
    dof rx
    limits (-10.0 170.0)
  end
  begin
     id 4 
     name lfoot
     direction 0.121251 -0.333133 0.935051   
     length 1.83716   
     axis -90 7.62852e-016 20   XYZ
    dof rx rz
    limits (-45.0 90.0)
           (-70.0 20.0)
  end
  begin
     id 5 
     name ltoes
     direction 1.53611e-011 -4.21962e-011 1   
     length 0.916133   
     axis -90 7.62852e-016 20   XYZ
    dof rx
    limits (-90.0 20.0)
  end
  begin
     id 6 
     name rhipjoint
     direction -0.692419 -0.660507 0.290321   
     length 2.55385  
     axis 0 0 0  XYZ 
  end
  begin
     id 7 
     name rfemur
     direction -0.34202 -0.939693 0   
     length 7.29079   
     axis 0 0 -20   XYZ
    dof rx ry rz
    limits (-160.0 20.0)
           (-70.0 70.0)
           (-70.0 60.0)
  end
  begin
     id 8 
     name rtibia
     direction -0.34202 -0.939693 0   
     length 7.47143   
     axis 0 0 -20   XYZ
    dof rx
    limits (-10.0 170.0)
 end
 begin
     id 9 
     name rfoot
     direction -0.119907 -0.329441 0.936532   
     length 1.79439  
     axis -90 -7.62852e-016 -20   XYZ
    dof rx rz
    limits (-45.0 90.0)
           (-20.0 70.0)
  end
  begin
     id 10 
     name rtoes
     direction -1.53571e-011 -4.21961e-011 1   
     length 0.896039   
     axis -90 -7.62852e-016 -20   XYZ
    dof rx
    limits (-90.0 20.0)
  end
  begin
     id 11 
     name lowerback
     direction 0.0367721 0.992912 -0.113016   
     length 1.73542   
     axis 0 0 0   XYZ
    dof rx ry rz
    limits (-20.0 45.0)
           (-30.0 30.0)
           (-30.0 30.0)
  end
  begin
     id 12 
     name upperback
     direction -0.000314626 0.990678 0.136227   
     length 1.7514   
     axis 0 0 0   XYZ
    dof rx ry rz
    limits (-20.0 45.0)
           (-30.0 30.0)
           (-30.0 30.0)
  end
  begin
     id 13 
     name thorax
     direction -0.0226159 0.981151 0.191917   
     length 1.71471   
     axis 0 0 0   XYZ
    dof rx ry rz
    limits (-20.0 45.0)
           (-30.0 30.0)
           (-30.0 30.0)
  end
  begin
     id 14 
     name lowerneck
     direction 0.0219333 0.998071 0.0580739   
     length 1.65882   
     axis 0 0 0   XYZ
    dof rx ry rz
    limits (-20.0 45.0)
           (-30.0 30.0)
           (-30.0 30.0)
  end
  begin
     id 15 
     name upperneck
     direction 0.0384529 0.980058 -0.194957   
     length 1.6612   
     axis 0 0 0   XYZ
    dof rx ry rz
    limits (-20.0 45.0)
           (-30.0 30.0)
           (-30.0 30.0)
  end
  begin
     id 16
     name head
     direction 0.00592123 0.997421 -0.0715234  
     length 1.68077  
     axis 0 0 0   XYZ
    dof rx ry rz
    limits (-20.0 45.0)
           (-30.0 30.0)
           (-30.0 30.0)
  end
  begin
     id 17 
     name lclavicle
     direction 0.904803 0.417826 0.0821728  
     length 3.42227  
     axis 0 0 0   XYZ
    dof ry rz
    limits (-20.0 10.0)
           (0.0 20.0)
  end
  begin
     id 18 
     name lhumerus
     direction 1 -4.48965e-011 -2.68786e-027   
     length 5.11878   
     axis -180 -30 -90   XYZ
    dof rx ry rz
    limits (-60.0 90.0)
           (-90.0 90.0)
           (-90.0 90.0)
  end
  begin
     id 19
     name lradius
     direction 1 -4.48965e-011 2.61168e-028   
     length 3.59971   
     axis -180 -30 -90   XYZ
    dof rx
    limits (-10.0 170.0)
  end
  begin
     id 20
     name lwrist
     direction 1 -4.48965e-011 1.58672e-027   
     length 1.79985   
     axis -1.65735e-015 90 90   XYZ
    dof ry
    limits (-180.0 0.0)
 end
  begin
     id 21 
     name lhand
     direction 1 -4.48942e-011 3.17344e-027   
     length 0.62877   
     axis -2.02492e-015 90 90   XYZ
    dof rx rz
    limits (-90.0 90.0)
           (-45.0 45.0)
  end
  begin
     id 22 
     name lfingers
     direction 1 -4.49011e-011 6.34687e-027   
     length 0.506931   
     axis -4.04985e-015 90 90   XYZ
    dof rx
    limits (0.0 90.0)
  end
  begin
     id 23
     name lthumb
     direction 0.707107 -6.34982e-011 0.707107   
     length 0.727854   
     axis -90 45 2.85299e-015   XYZ
    dof rx rz
    limits (-45.0 45.0)
           (-45.0 45.0)
  end
  begin
     id 24 
     name rclavicle
     direction -0.945647 0.32488 0.0143075   
     length 3.52737  
     axis 0 0 0   XYZ 
    dof ry rz
    limits (-10.0 20.0)
           (-20.0 0.0)
  end
  begin
     id 25 
     name rhumerus
     direction -1 -4.48962e-011 1.92182e-027  
     length 5.4902   
     axis -180 30 90   XYZ
    dof rx ry rz
    limits (-90.0 60.0)
           (-90.0 90.0)
           (-90.0 90.0)
  end
  begin
     id 26 
     name rradius
     direction -1 -4.48967e-011 -5.97193e-028   
     length 3.20659   
     axis -180 30 90   XYZ
    dof rx
    limits (-10.0 170.0)
  end
  begin
     id 27 
     name rwrist
     direction -1 -4.48964e-011 1.58672e-027   
     length 1.6033   
     axis -1.65735e-015 -90 -90   XYZ
    dof ry
    limits (-180.0 0.0)
  end
  begin
     id 28
     name rhand
     direction -1 -4.49006e-011 3.17344e-027   
     length 0.691885   
     axis -2.02492e-015 -90 -90   XYZ
    dof rx rz
    limits (-90.0 90.0)
           (-45.0 45.0)
  end
  begin
     id 29
     name rfingers
     direction -1 -4.48908e-011 6.34687e-027   
     length 0.557815   
     axis -4.04985e-015 -90 -90   XYZ
    dof rx
    limits (0.0 90.0)
  end
  begin
     id 30
     name rthumb
     direction -0.707107 -6.34999e-011 0.707107   
     length 0.800915   
     axis -90 -45 -2.85299e-015   XYZ
    dof rx rz
    limits (-45.0 45.0)
           (-45.0 45.0)
  end
:hierarchy
  begin
    root lhipjoint rhipjoint lowerback
    lhipjoint lfemur
    lfemur ltibia
    ltibia lfoot
    lfoot ltoes
    rhipjoint rfemur
    rfemur rtibia
    rtibia rfoot
    rfoot rtoes
    lowerback upperback
    upperback thorax
    thorax lowerneck lclavicle rclavicle
    lowerneck upperneck
    upperneck head
    lclavicle lhumerus
    lhumerus lradius
    lradius lwrist
    lwrist lhand lthumb
    lhand lfingers
    rclavicle rhumerus
    rhumerus rradius
    rradius rwrist
    rwrist rhand rthumb
    rhand rfingers
  end

#!OML:ASF I:\Actors\actors\Patient Classification 1\Patient 1\Session 1\Subject1.ASF
:FULLY-SPECIFIED
:DEGREES
34
root 1.11188 17.4212 8.61631 9.86546 -1.02901 -8.37797
lowerback -2.87722 1.52094 5.90325
upperback -8.62422 2.20965 1.27384
thorax -7.26747 0.751345 -2.02926
lowerneck 1.50568 -14.178 -13.1836
upperneck 11.2055 -21.0613 15.9955
head 6.25907 -10.289 5.58207
rclavicle 2.34069e-014 -6.12257e-014
rhumerus -51.011 -38.3264 -57.4354
rradius 26.2764
rwrist 37.2983
rhand -3.93938 -31.4905
rfingers 7.12502
rthumb 21.8122 -60.2813
lclavicle 2.34069e-014 -6.12257e-014
lhumerus -52.5194 31.2436 60.049
lradius 28.5985
lwrist -0.54222
lhand -18.419 -3.56474
lfingers 7.12502
lthumb 7.86594 26.2689
rfemur -5.082 25.2062 23.6566
rtibia 2.36806
rfoot -12.9354 -23.5599
rtoes 2.75501
lfemur 3.0958 -43.8003 -11.6781
ltibia -3.98737
lfoot -20.11 51.4731
ltoes 11.1273
35
root 1.1126 17.4223 8.61856 9.79555 -1.06954 -8.35001
lowerback -2.86657 1.51945 5.86939
upperback -8.58184 2.20619 1.28136
thorax -7.22836 0.753975 -2.00235
lowerneck 1.51013 -14.1759 -13.2184
upperneck 11.1916 -21.0605 16.0222
head 6.26068 -10.2894 5.59559
rclavicle -1.2921e-014 -1.59028e-015
rhumerus -50.9707 -38.3271 -57.4484
rradius 26.2573
rwrist 37.3518
rhand -3.91375 -31.5087
rfingers 7.12502
rthumb 21.8368 -60.2966
lclavicle -1.2921e-014 -1.59028e-015
lhumerus -52.5145 31.2288 60.0788
lradius 28.5917
lwrist -0.461444
lhand -18.4422 -4.46742
lfingers 7.12502
lthumb 7.84354 25.3671
rfemur -4.98749 25.1715 23.6569
rtibia 2.35371
rfoot -12.9043 -23.5175
rtoes 2.50067
lfemur 3.29783 -44.0294 -11.8885
ltibia -3.9688
lfoot -20.5042 51.6514
ltoes 11.6302
36
root 1.11126 17.422 8.61681 9.78922 -1.03491 -8.29356
lowerback -2.57093 1.58082 5.98809
upperback -8.78056 2.31457 1.1167
thorax -7.60024 0.778608 -2.25556
lowerneck 1.7467 -14.2165 -13.2487
upperneck 11.2736 -21.1673 16.0936
head 6.27427 -10.3504 5.62541
rclavicle 2.88238e-015 -1.43125e-014
rhumerus -51.5408 -38.3672 -57.1902
rradius 26.3178
rwrist 37.3404
rhand -3.95412 -31.4725
rfingers 7.12502
rthumb 21.798 -60.2649
lclavicle 2.88238e-015 -1.43125e-014
lhumerus -52.8091 31.5979 59.2494
lradius 28.2337
lwrist -1.44447
lhand -18.2624 -4.7696
lfingers 7.12502
lthumb 8.01704 25.0584
rfemur -4.97874 25.1781 23.6025
rtibia 2.33882
rfoot -12.875 -23.5912
rtoes 2.3263
lfemur 3.23385 -43.8779 -11.8826
ltibia -3.97822
lfoot -20.4174 51.4705
ltoes 11.5947
37
root 1.11124 17.422 8.61572 9.78331 -1.01279 -8.27448
lowerback -2.41236 1.61889 6.07775
upperback -8.87743 2.3796 1.02442
thorax -7.78807 0.793208 -2.4109
lowerneck 1.83726 -14.2492 -13.249
upperneck 11.3479 -21.2381 16.1126
head 6.29545 -10.387 5.628
rclavicle 2.21645e-014 3.22031e-014
rhumerus -51.8654 -38.4018 -57.0582
rradius 26.4048
rwrist 37.2646
rhand -3.98101 -31.4633
rfingers 7.12502
rthumb 21.7722 -60.2588
lclavicle 2.21645e-014 3.22031e-014
lhumerus -52.9401 31.7558 58.8407
lradius 28.0434
lwrist -1.95115
lhand -18.2195 -5.78855
lfingers 7.12502
lthumb 8.05847 24.0378
rfemur -4.9714 25.1843 23.5828
rtibia 2.33067
rfoot -12.8804 -23.6226
rtoes 2.3483
lfemur 3.192 -43.7415 -11.8521
ltibia -4.00329
lfoot -20.2914 51.3425
ltoes 11.4773
38
root 1.11142 17.4218 8.61535 9.79016 -1.00764 -8.26986
lowerback -2.42951 1.60406 6.0629
upperback -8.87373 2.35841 1.03496
thorax -7.77658 0.784613 -2.3902
lowerneck 1.80429 -14.2329 -13.2404
upperneck 11.3996 -21.2136 16.0738
head 6.308 -10.3734 5.61478
rclavicle 6.4605e-015 -8.34896e-015
rhumerus -51.8651 -38.3646 -57.0881
rradius 26.4687
rwrist 37.2075
rhand -3.96 -31.4795
rfingers 7.12502
rthumb 21.7924 -60.2726
lclavicle 6.4605e-015 -8.34896e-015
lhumerus -53.01 31.8865 58.705
lradius 27.9996
lwrist -2.11476
lhand -18.2475 -6.59506
lfingers 7.12502
lthumb 8.03148 23.2323
rfemur -4.97894 25.195 23.5696
rtibia 2.32349
rfoot -12.8891 -23.6125
rtoes 2.56838
lfemur 3.16571 -43.6934 -11.8368
ltibia -4.00764
lfoot -20.1981 51.3199
ltoes 11.3894
